# xmcd
#
# Track frame offsets:
#  150
#  16399
#  32211
#  49297
#  65424
#  80609
#  95948
#  120775
#  143438
#  154804
#  172126
#  192633
#
# Disc length: 2857 seconds
#
# Revision: 0
# Processed by: cddbd v1.5.2PL0 Copyright (c) Steve Scherf et al.
# Submitted via: AltoMP3_Maker 3.0
#
DISCID=a60b270c
DTITLE=Josh Turner - Everything is Fine
DYEAR=1900
DGENRE=
TTITLE0=Everything Is Fine
TTITLE1=Firecracker
TTITLE2=Another Try
TTITLE3=So Not My Baby
TTITLE4=Trailerhood
TTITLE5=Baby, I Go Crazy
TTITLE6=Nowhere Fast
TTITLE7=The Longer the Waiting (The Sweeter the Kiss)
TTITLE8=One Woman Man
TTITLE9=Soulmate
TTITLE10=The Way He Was Raised
TTITLE11=South Carolina Low Country
EXTD=
EXTT0=
EXTT1=
EXTT2=
EXTT3=
EXTT4=
EXTT5=
EXTT6=
EXTT7=
EXTT8=
EXTT9=
EXTT10=
EXTT11=
PLAYORDER=
